<svg xmlns="http://www.w3.org/2000/svg" height="40px" viewBox="0 -960 960 960" width="40px" fill="#FFFFFF"><path d="M220-273.33v-413.34q0-14.33 9.5-23.83 9.5-9.5 23.83-9.5 14.34 0 23.84 9.5t9.5 23.83v413.34q0 14.33-9.5 23.83-9.5 9.5-23.84 9.5-14.33 0-23.83-9.5-9.5-9.5-9.5-23.83Zm468-2.34L430-452.33q-7.67-5.34-11.17-12.5-3.5-7.17-3.5-15.17t3.5-15.17q3.5-7.16 11.17-12.5l258-176.66q4.33-3.34 9-4.67t9.67-1.33q13.33 0 23.33 9 10 9 10 24.33v354q0 15.33-10 24.33-10 9-23.33 9-5 0-9.67-1.33t-9-4.67Z"/></svg>